<mxfile host="app.diagrams.net" modified="2021-09-21T09:33:17.124Z" agent="5.0 (Windows)" etag="v1b_JMzm0bLeWoy4Q-jp" version="15.2.9" type="github">
  <diagram id="C5RBs43oDa-KdzZeNtuy" name="Page-1">
    <mxGraphModel dx="1027" dy="464" grid="1" gridSize="10" guides="1" tooltips="1" connect="1" arrows="1" fold="1" page="1" pageScale="1" pageWidth="827" pageHeight="1169" math="0" shadow="0">
      <root>
        <mxCell id="WIyWlLk6GJQsqaUBKTNV-0" />
        <mxCell id="WIyWlLk6GJQsqaUBKTNV-1" parent="WIyWlLk6GJQsqaUBKTNV-0" />
        <mxCell id="AHUf4vQHbIHXInVDXUCR-1" value="" style="rounded=1;whiteSpace=wrap;html=1;arcSize=1;fillColor=#f5f5f5;strokeColor=#666666;fontColor=#333333;" vertex="1" parent="WIyWlLk6GJQsqaUBKTNV-1">
          <mxGeometry x="64" y="70" width="700" height="620" as="geometry" />
        </mxCell>
        <mxCell id="AHUf4vQHbIHXInVDXUCR-3" value="&lt;div style=&quot;font-size: 22px;&quot;&gt;&lt;b style=&quot;font-size: 22px;&quot;&gt;WORLDWIDE &lt;br style=&quot;font-size: 22px;&quot;&gt;&lt;/b&gt;&lt;/div&gt;&lt;div style=&quot;font-size: 22px;&quot;&gt;&lt;b style=&quot;font-size: 22px;&quot;&gt;COVID-19 TRACKER&lt;br style=&quot;font-size: 22px;&quot;&gt;&lt;/b&gt;&lt;/div&gt;" style="text;html=1;strokeColor=none;fillColor=none;align=center;verticalAlign=middle;whiteSpace=wrap;rounded=0;fontSize=22;" vertex="1" parent="WIyWlLk6GJQsqaUBKTNV-1">
          <mxGeometry x="80" y="120" width="220" height="60" as="geometry" />
        </mxCell>
        <mxCell id="AHUf4vQHbIHXInVDXUCR-5" value="" style="rounded=1;whiteSpace=wrap;html=1;fontSize=22;" vertex="1" parent="WIyWlLk6GJQsqaUBKTNV-1">
          <mxGeometry x="540" y="120" width="160" height="70" as="geometry" />
        </mxCell>
        <mxCell id="AHUf4vQHbIHXInVDXUCR-7" value="All countries drop down menu" style="text;html=1;strokeColor=none;fillColor=none;align=center;verticalAlign=middle;whiteSpace=wrap;rounded=0;fontSize=18;" vertex="1" parent="WIyWlLk6GJQsqaUBKTNV-1">
          <mxGeometry x="555.88" y="130" width="128.25" height="50" as="geometry" />
        </mxCell>
        <mxCell id="AHUf4vQHbIHXInVDXUCR-11" value="" style="rounded=0;whiteSpace=wrap;html=1;fontSize=18;spacingBottom=0;" vertex="1" parent="WIyWlLk6GJQsqaUBKTNV-1">
          <mxGeometry x="101" y="250" width="140" height="80" as="geometry" />
        </mxCell>
        <mxCell id="AHUf4vQHbIHXInVDXUCR-13" value="" style="rounded=0;whiteSpace=wrap;html=1;fontSize=18;" vertex="1" parent="WIyWlLk6GJQsqaUBKTNV-1">
          <mxGeometry x="310" y="250" width="140" height="80" as="geometry" />
        </mxCell>
        <mxCell id="AHUf4vQHbIHXInVDXUCR-14" value="" style="rounded=0;whiteSpace=wrap;html=1;fontSize=18;" vertex="1" parent="WIyWlLk6GJQsqaUBKTNV-1">
          <mxGeometry x="510" y="250" width="140" height="80" as="geometry" />
        </mxCell>
        <mxCell id="AHUf4vQHbIHXInVDXUCR-15" value="&lt;font style=&quot;font-size: 10px&quot;&gt;&lt;b&gt;&lt;font style=&quot;font-size: 10px&quot;&gt;Corona Virus Cases&lt;br&gt;&lt;/font&gt;&lt;/b&gt;&lt;/font&gt;" style="text;html=1;strokeColor=none;fillColor=none;align=left;verticalAlign=middle;whiteSpace=wrap;rounded=0;fontSize=18;" vertex="1" parent="WIyWlLk6GJQsqaUBKTNV-1">
          <mxGeometry x="101" y="250" width="129" height="20" as="geometry" />
        </mxCell>
        <mxCell id="AHUf4vQHbIHXInVDXUCR-16" value="&lt;b&gt;&lt;font style=&quot;font-size: 13px&quot;&gt;2.3k&lt;/font&gt;&lt;/b&gt;" style="text;html=1;strokeColor=none;fillColor=none;align=left;verticalAlign=middle;whiteSpace=wrap;rounded=0;fontSize=18;" vertex="1" parent="WIyWlLk6GJQsqaUBKTNV-1">
          <mxGeometry x="101" y="277.5" width="100.5" height="25" as="geometry" />
        </mxCell>
        <mxCell id="AHUf4vQHbIHXInVDXUCR-17" value="&lt;b&gt;&lt;font style=&quot;font-size: 13px&quot;&gt;1.2M total&lt;/font&gt;&lt;/b&gt;" style="text;html=1;strokeColor=none;fillColor=none;align=left;verticalAlign=middle;whiteSpace=wrap;rounded=0;fontSize=18;" vertex="1" parent="WIyWlLk6GJQsqaUBKTNV-1">
          <mxGeometry x="101" y="300" width="100.5" height="25" as="geometry" />
        </mxCell>
        <mxCell id="AHUf4vQHbIHXInVDXUCR-18" value="&lt;div align=&quot;left&quot;&gt;&lt;b&gt;&lt;font style=&quot;font-size: 10px&quot;&gt;Recovered&lt;/font&gt;&lt;/b&gt;&lt;/div&gt;" style="text;html=1;strokeColor=none;fillColor=none;align=left;verticalAlign=middle;whiteSpace=wrap;rounded=0;fontSize=18;" vertex="1" parent="WIyWlLk6GJQsqaUBKTNV-1">
          <mxGeometry x="310" y="250" width="129" height="20" as="geometry" />
        </mxCell>
        <mxCell id="AHUf4vQHbIHXInVDXUCR-19" value="&lt;b&gt;&lt;font style=&quot;font-size: 13px&quot;&gt;3.5k&lt;/font&gt;&lt;/b&gt;" style="text;html=1;strokeColor=none;fillColor=none;align=left;verticalAlign=middle;whiteSpace=wrap;rounded=0;fontSize=18;" vertex="1" parent="WIyWlLk6GJQsqaUBKTNV-1">
          <mxGeometry x="310" y="277.5" width="129" height="20" as="geometry" />
        </mxCell>
        <mxCell id="AHUf4vQHbIHXInVDXUCR-20" value="&lt;div align=&quot;left&quot;&gt;&lt;font style=&quot;font-size: 13px&quot;&gt;&lt;b&gt;5.6k&lt;/b&gt;&lt;/font&gt;&lt;/div&gt;" style="text;html=1;strokeColor=none;fillColor=none;align=left;verticalAlign=middle;whiteSpace=wrap;rounded=0;fontSize=18;" vertex="1" parent="WIyWlLk6GJQsqaUBKTNV-1">
          <mxGeometry x="310" y="305" width="129" height="20" as="geometry" />
        </mxCell>
      </root>
    </mxGraphModel>
  </diagram>
</mxfile>
